<mxfile host="app.diagrams.net" agent="Mozilla/5.0 (Windows NT 10.0; Win64; x64) AppleWebKit/537.36 (KHTML, like Gecko) Chrome/130.0.0.0 Safari/537.36" version="24.8.6">
  <diagram name="Страница — 1" id="gC614nfCkKjasTFmiuTZ">
    <mxGraphModel dx="1050" dy="565" grid="1" gridSize="10" guides="1" tooltips="1" connect="1" arrows="1" fold="1" page="1" pageScale="1" pageWidth="827" pageHeight="1169" math="0" shadow="0">
      <root>
        <mxCell id="0" />
        <mxCell id="1" parent="0" />
        <mxCell id="n8cB83g8utL09DGacvdY-18" style="rounded=0;orthogonalLoop=1;jettySize=auto;html=1;entryX=1;entryY=0;entryDx=0;entryDy=0;" edge="1" parent="1" source="n8cB83g8utL09DGacvdY-1" target="n8cB83g8utL09DGacvdY-4">
          <mxGeometry relative="1" as="geometry" />
        </mxCell>
        <mxCell id="n8cB83g8utL09DGacvdY-19" style="rounded=0;orthogonalLoop=1;jettySize=auto;html=1;" edge="1" parent="1" source="n8cB83g8utL09DGacvdY-1" target="n8cB83g8utL09DGacvdY-5">
          <mxGeometry relative="1" as="geometry" />
        </mxCell>
        <mxCell id="n8cB83g8utL09DGacvdY-1" value="Категория 1го уровня А" style="ellipse;whiteSpace=wrap;html=1;aspect=fixed;" vertex="1" parent="1">
          <mxGeometry x="150" y="80" width="80" height="80" as="geometry" />
        </mxCell>
        <mxCell id="n8cB83g8utL09DGacvdY-23" style="edgeStyle=none;shape=connector;rounded=0;orthogonalLoop=1;jettySize=auto;html=1;strokeColor=default;align=center;verticalAlign=middle;fontFamily=Helvetica;fontSize=11;fontColor=default;labelBackgroundColor=default;endArrow=classic;" edge="1" parent="1" source="n8cB83g8utL09DGacvdY-2" target="n8cB83g8utL09DGacvdY-6">
          <mxGeometry relative="1" as="geometry" />
        </mxCell>
        <mxCell id="n8cB83g8utL09DGacvdY-2" value="Категория 1го уровня B" style="ellipse;whiteSpace=wrap;html=1;aspect=fixed;" vertex="1" parent="1">
          <mxGeometry x="390" y="70" width="80" height="80" as="geometry" />
        </mxCell>
        <mxCell id="n8cB83g8utL09DGacvdY-26" style="edgeStyle=none;shape=connector;rounded=0;orthogonalLoop=1;jettySize=auto;html=1;strokeColor=default;align=center;verticalAlign=middle;fontFamily=Helvetica;fontSize=11;fontColor=default;labelBackgroundColor=default;endArrow=classic;" edge="1" parent="1" source="n8cB83g8utL09DGacvdY-3" target="n8cB83g8utL09DGacvdY-7">
          <mxGeometry relative="1" as="geometry" />
        </mxCell>
        <mxCell id="n8cB83g8utL09DGacvdY-27" style="edgeStyle=none;shape=connector;rounded=0;orthogonalLoop=1;jettySize=auto;html=1;strokeColor=default;align=center;verticalAlign=middle;fontFamily=Helvetica;fontSize=11;fontColor=default;labelBackgroundColor=default;endArrow=classic;" edge="1" parent="1" source="n8cB83g8utL09DGacvdY-3" target="n8cB83g8utL09DGacvdY-9">
          <mxGeometry relative="1" as="geometry" />
        </mxCell>
        <mxCell id="n8cB83g8utL09DGacvdY-28" style="edgeStyle=none;shape=connector;rounded=0;orthogonalLoop=1;jettySize=auto;html=1;strokeColor=default;align=center;verticalAlign=middle;fontFamily=Helvetica;fontSize=11;fontColor=default;labelBackgroundColor=default;endArrow=classic;" edge="1" parent="1" source="n8cB83g8utL09DGacvdY-3" target="n8cB83g8utL09DGacvdY-8">
          <mxGeometry relative="1" as="geometry" />
        </mxCell>
        <mxCell id="n8cB83g8utL09DGacvdY-3" value="Категория 1го уровня C" style="ellipse;whiteSpace=wrap;html=1;aspect=fixed;" vertex="1" parent="1">
          <mxGeometry x="630" y="70" width="80" height="80" as="geometry" />
        </mxCell>
        <mxCell id="n8cB83g8utL09DGacvdY-20" style="edgeStyle=none;shape=connector;rounded=0;orthogonalLoop=1;jettySize=auto;html=1;strokeColor=default;align=center;verticalAlign=middle;fontFamily=Helvetica;fontSize=11;fontColor=default;labelBackgroundColor=default;endArrow=classic;" edge="1" parent="1" source="n8cB83g8utL09DGacvdY-4" target="n8cB83g8utL09DGacvdY-10">
          <mxGeometry relative="1" as="geometry" />
        </mxCell>
        <mxCell id="n8cB83g8utL09DGacvdY-4" value="Категория 2го уровня А.1" style="ellipse;whiteSpace=wrap;html=1;aspect=fixed;" vertex="1" parent="1">
          <mxGeometry x="60" y="190" width="80" height="80" as="geometry" />
        </mxCell>
        <mxCell id="n8cB83g8utL09DGacvdY-21" style="edgeStyle=none;shape=connector;rounded=0;orthogonalLoop=1;jettySize=auto;html=1;strokeColor=default;align=center;verticalAlign=middle;fontFamily=Helvetica;fontSize=11;fontColor=default;labelBackgroundColor=default;endArrow=classic;" edge="1" parent="1" source="n8cB83g8utL09DGacvdY-5" target="n8cB83g8utL09DGacvdY-11">
          <mxGeometry relative="1" as="geometry" />
        </mxCell>
        <mxCell id="n8cB83g8utL09DGacvdY-22" style="edgeStyle=none;shape=connector;rounded=0;orthogonalLoop=1;jettySize=auto;html=1;strokeColor=default;align=center;verticalAlign=middle;fontFamily=Helvetica;fontSize=11;fontColor=default;labelBackgroundColor=default;endArrow=classic;" edge="1" parent="1" source="n8cB83g8utL09DGacvdY-5" target="n8cB83g8utL09DGacvdY-12">
          <mxGeometry relative="1" as="geometry" />
        </mxCell>
        <mxCell id="n8cB83g8utL09DGacvdY-5" value="Категория 2го уровня А.2" style="ellipse;whiteSpace=wrap;html=1;aspect=fixed;" vertex="1" parent="1">
          <mxGeometry x="200" y="190" width="80" height="80" as="geometry" />
        </mxCell>
        <mxCell id="n8cB83g8utL09DGacvdY-24" style="edgeStyle=none;shape=connector;rounded=0;orthogonalLoop=1;jettySize=auto;html=1;strokeColor=default;align=center;verticalAlign=middle;fontFamily=Helvetica;fontSize=11;fontColor=default;labelBackgroundColor=default;endArrow=classic;" edge="1" parent="1" source="n8cB83g8utL09DGacvdY-6" target="n8cB83g8utL09DGacvdY-13">
          <mxGeometry relative="1" as="geometry" />
        </mxCell>
        <mxCell id="n8cB83g8utL09DGacvdY-25" style="edgeStyle=none;shape=connector;rounded=0;orthogonalLoop=1;jettySize=auto;html=1;strokeColor=default;align=center;verticalAlign=middle;fontFamily=Helvetica;fontSize=11;fontColor=default;labelBackgroundColor=default;endArrow=classic;" edge="1" parent="1" source="n8cB83g8utL09DGacvdY-6" target="n8cB83g8utL09DGacvdY-14">
          <mxGeometry relative="1" as="geometry" />
        </mxCell>
        <mxCell id="n8cB83g8utL09DGacvdY-6" value="Категория 2го уровня В.1" style="ellipse;whiteSpace=wrap;html=1;aspect=fixed;" vertex="1" parent="1">
          <mxGeometry x="400" y="190" width="80" height="80" as="geometry" />
        </mxCell>
        <mxCell id="n8cB83g8utL09DGacvdY-30" style="edgeStyle=none;shape=connector;rounded=0;orthogonalLoop=1;jettySize=auto;html=1;entryX=0.5;entryY=0;entryDx=0;entryDy=0;strokeColor=default;align=center;verticalAlign=middle;fontFamily=Helvetica;fontSize=11;fontColor=default;labelBackgroundColor=default;endArrow=classic;" edge="1" parent="1" source="n8cB83g8utL09DGacvdY-7" target="n8cB83g8utL09DGacvdY-15">
          <mxGeometry relative="1" as="geometry" />
        </mxCell>
        <mxCell id="n8cB83g8utL09DGacvdY-7" value="Категория 2го уровня С.1" style="ellipse;whiteSpace=wrap;html=1;aspect=fixed;" vertex="1" parent="1">
          <mxGeometry x="540" y="190" width="80" height="80" as="geometry" />
        </mxCell>
        <mxCell id="n8cB83g8utL09DGacvdY-8" value="Категория 2го уровня С.3" style="ellipse;whiteSpace=wrap;html=1;aspect=fixed;" vertex="1" parent="1">
          <mxGeometry x="720" y="190" width="80" height="80" as="geometry" />
        </mxCell>
        <mxCell id="n8cB83g8utL09DGacvdY-9" value="Категория 2го уровня С.2" style="ellipse;whiteSpace=wrap;html=1;aspect=fixed;" vertex="1" parent="1">
          <mxGeometry x="630" y="190" width="80" height="80" as="geometry" />
        </mxCell>
        <mxCell id="n8cB83g8utL09DGacvdY-10" value="Категория 3го уровня А.1.1" style="ellipse;whiteSpace=wrap;html=1;aspect=fixed;" vertex="1" parent="1">
          <mxGeometry x="40" y="320" width="80" height="80" as="geometry" />
        </mxCell>
        <mxCell id="n8cB83g8utL09DGacvdY-11" value="Категория 3го уровня А.2.1" style="ellipse;whiteSpace=wrap;html=1;aspect=fixed;" vertex="1" parent="1">
          <mxGeometry x="140" y="320" width="80" height="80" as="geometry" />
        </mxCell>
        <mxCell id="n8cB83g8utL09DGacvdY-12" value="Категория 3го уровня А.2.2" style="ellipse;whiteSpace=wrap;html=1;aspect=fixed;" vertex="1" parent="1">
          <mxGeometry x="230" y="320" width="80" height="80" as="geometry" />
        </mxCell>
        <mxCell id="n8cB83g8utL09DGacvdY-13" value="Категория 3го уровня В.1.1" style="ellipse;whiteSpace=wrap;html=1;aspect=fixed;" vertex="1" parent="1">
          <mxGeometry x="340" y="320" width="80" height="80" as="geometry" />
        </mxCell>
        <mxCell id="n8cB83g8utL09DGacvdY-14" value="Категория 3го уровня В.1.2" style="ellipse;whiteSpace=wrap;html=1;aspect=fixed;" vertex="1" parent="1">
          <mxGeometry x="440" y="320" width="80" height="80" as="geometry" />
        </mxCell>
        <mxCell id="n8cB83g8utL09DGacvdY-15" value="Категория 3го уровня С.1.1" style="ellipse;whiteSpace=wrap;html=1;aspect=fixed;" vertex="1" parent="1">
          <mxGeometry x="540" y="320" width="80" height="80" as="geometry" />
        </mxCell>
        <mxCell id="n8cB83g8utL09DGacvdY-16" value="Категория 3го уровня С.2.1" style="ellipse;whiteSpace=wrap;html=1;aspect=fixed;" vertex="1" parent="1">
          <mxGeometry x="640" y="320" width="80" height="80" as="geometry" />
        </mxCell>
        <mxCell id="n8cB83g8utL09DGacvdY-17" value="Категория 3го уровня С.3.1" style="ellipse;whiteSpace=wrap;html=1;aspect=fixed;" vertex="1" parent="1">
          <mxGeometry x="730" y="320" width="80" height="80" as="geometry" />
        </mxCell>
        <mxCell id="n8cB83g8utL09DGacvdY-31" style="edgeStyle=none;shape=connector;rounded=0;orthogonalLoop=1;jettySize=auto;html=1;entryX=0.395;entryY=-0.037;entryDx=0;entryDy=0;entryPerimeter=0;strokeColor=default;align=center;verticalAlign=middle;fontFamily=Helvetica;fontSize=11;fontColor=default;labelBackgroundColor=default;endArrow=classic;" edge="1" parent="1" source="n8cB83g8utL09DGacvdY-9" target="n8cB83g8utL09DGacvdY-16">
          <mxGeometry relative="1" as="geometry" />
        </mxCell>
        <mxCell id="n8cB83g8utL09DGacvdY-32" style="edgeStyle=none;shape=connector;rounded=0;orthogonalLoop=1;jettySize=auto;html=1;entryX=0.42;entryY=-0.008;entryDx=0;entryDy=0;entryPerimeter=0;strokeColor=default;align=center;verticalAlign=middle;fontFamily=Helvetica;fontSize=11;fontColor=default;labelBackgroundColor=default;endArrow=classic;" edge="1" parent="1" source="n8cB83g8utL09DGacvdY-8" target="n8cB83g8utL09DGacvdY-17">
          <mxGeometry relative="1" as="geometry" />
        </mxCell>
      </root>
    </mxGraphModel>
  </diagram>
</mxfile>
